<svg width="118" height="24" viewBox="0 0 118 24" fill="none" xmlns="http://www.w3.org/2000/svg">
<line x1="5.04297" y1="11.8315" x2="108.595" y2="11.8316" stroke="#CCCCCC" stroke-dasharray="3 3"/>
<g clip-path="url(#clip0_1810_14202)">
<path d="M57.6233 21.75H56.2578C56.1206 21.75 55.9856 21.7185 55.8652 21.6585C55.7447 21.5984 55.6427 21.5118 55.5683 21.4064C55.494 21.301 55.4497 21.1803 55.4396 21.0552C55.4295 20.9302 55.4539 20.8048 55.5105 20.6906L58.8169 14.0227L53.8522 13.9219L52.0415 15.9267C51.6963 16.3233 51.4208 16.5 50.7181 16.5H49.7989C49.6534 16.5043 49.5089 16.4764 49.3776 16.4188C49.2464 16.3612 49.1322 16.2755 49.0449 16.1691C48.9228 16.0186 48.8028 15.7636 48.9198 15.3998L49.9364 12.0717C49.9441 12.0469 49.9533 12.022 49.9636 11.9977C49.9641 11.9953 49.9641 11.9929 49.9636 11.9906C49.953 11.9663 49.9439 11.9414 49.9364 11.9161L48.9187 8.56687C48.8085 8.21016 48.929 7.96078 49.05 7.81406C49.1313 7.71549 49.2368 7.63573 49.358 7.58118C49.4791 7.52664 49.6126 7.49883 49.7476 7.5H50.7181C51.2428 7.5 51.7522 7.71516 52.0518 8.0625L53.825 10.0336L58.8169 9.96609L55.5115 3.30984C55.4548 3.19568 55.4304 3.07036 55.4404 2.94533C55.4504 2.8203 55.4945 2.69956 55.5688 2.59414C55.643 2.48872 55.745 2.40198 55.8653 2.34186C55.9857 2.28175 56.1207 2.25016 56.2578 2.25H57.6381C57.8307 2.25354 58.0199 2.29667 58.1918 2.3762C58.3636 2.45572 58.5136 2.5696 58.6307 2.70937L65.045 9.83438L68.0082 9.76312C68.2252 9.75234 68.8263 9.74859 68.9653 9.74859C71.7998 9.75 73.4925 10.5909 73.4925 12C73.4925 12.4434 73.2986 13.2656 72.0014 13.7887C71.2356 14.0981 70.2138 14.2547 68.9643 14.2547C68.8268 14.2547 68.2272 14.2509 68.0072 14.2402L65.0444 14.168L58.6143 21.293C58.4971 21.4321 58.3472 21.5454 58.1757 21.6246C58.0042 21.7037 57.8154 21.7465 57.6233 21.75Z" fill="#1262AE"/>
</g>
<circle cx="5.30176" cy="12.3315" r="4" fill="white" stroke="#1262AE" stroke-width="2"/>
<circle cx="112.652" cy="11.9146" r="4" fill="white" stroke="#1262AE" stroke-width="2"/>
<defs>
<clipPath id="clip0_1810_14202">
<rect width="26.2624" height="24" fill="white" transform="translate(48.0508)"/>
</clipPath>
</defs>
</svg>
