<svg width="108" height="16" viewBox="0 0 108 16" fill="none" xmlns="http://www.w3.org/2000/svg">
<path d="M4.52029 8.03241L101.528 8.17033" stroke="#CACACA" stroke-width="0.836813" stroke-linecap="square" stroke-dasharray="1.67 4.18"/>
<path d="M50.366 15.6044H52.0188L56.1508 9.24466L60.696 9.24466C61.3819 9.24466 61.9355 8.71204 61.9355 8.0522C61.9355 7.39237 61.3819 6.85975 60.696 6.85975L56.1508 6.85975L52.0188 0.5L50.366 0.5L52.432 6.85978L47.8869 6.85978L46.6473 5.26983H45.4077L46.2341 8.05224L45.4077 10.8346H46.6473L47.8869 9.24466H52.432L50.366 15.6044Z" fill="#1262AE"/>
<circle cx="4.6167" cy="8" r="3.66319" fill="white" stroke="#1262AE" stroke-width="1.67363"/>
<path d="M106.389 8.68406C106.389 10.5024 104.848 12.0313 102.877 12.0313C100.906 12.0313 99.3642 10.5024 99.3642 8.68406C99.3642 6.8657 100.906 5.33681 102.877 5.33681C104.848 5.33681 106.389 6.8657 106.389 8.68406Z" fill="white" stroke="#1262AE" stroke-width="1.67363"/>
</svg>
