<svg width="24" height="24" viewBox="0 0 24 24" fill="none" xmlns="http://www.w3.org/2000/svg">
<path fill-rule="evenodd" clip-rule="evenodd" d="M19.8697 13.9875C19.9565 13.4958 20.0001 12.9974 20 12.4981C20 12.1907 19.9834 11.9013 19.9513 11.6252C19.9445 11.5653 18.9751 13.5527 17.4242 14.8115C18.5031 13.8449 19.9105 11.3228 19.8906 11.2134C19.8736 11.1186 19.8543 11.0241 19.8328 10.9301C19.6474 10.1166 19.313 9.39345 18.8573 8.60735C18.7161 10.2756 18.2226 12.0529 16.9277 13.5897C18.2715 11.977 18.7391 8.30395 18.4189 7.79811C17.1299 5.77714 14.4158 4.0083 11.5102 4.0083L11.4897 4.06163V4.01204C8.58399 4.01204 5.87009 5.78077 4.58115 7.80164C4.26084 8.30748 4.72839 11.9806 6.07221 13.5932C4.77747 12.0564 4.28387 10.2792 4.14276 8.61088C3.68672 9.39709 3.3525 10.12 3.16708 10.9336C3.14562 11.0276 3.12635 11.1221 3.10928 11.217C3.08947 11.3263 4.4969 13.8484 5.57582 14.815C4.02478 13.5561 3.05543 11.5687 3.04848 11.6287C3.01548 11.9185 2.9993 12.21 3.00002 12.5017C3.00002 13.0098 3.04464 13.5074 3.13024 13.9911C3.20942 14.4384 5.01208 15.6699 5.05877 15.7086C3.74939 15.1971 3.20879 14.3925 3.25798 14.5869C4.18748 18.2674 7.52042 20.9914 11.4897 20.9914V20.9875L11.5102 20.9877C15.4795 20.9877 18.8124 18.264 19.7418 14.5832C19.7911 14.3889 19.2506 15.1934 17.9412 15.705C17.9877 15.6664 19.7904 14.4349 19.8697 13.9875ZM14.2546 14.3144C14.1689 14.3516 14.0821 14.3837 13.9933 14.4078C13.1794 14.6295 12.0478 14.548 11.5187 13.8569C10.9835 13.1577 11.1317 12.0236 11.5477 11.3078C11.9679 10.5851 12.5985 10.048 13.159 9.43973C13.4275 9.14954 13.701 8.86408 13.9795 8.58349C14.1603 8.40055 14.6536 8.00854 14.6434 7.74706C14.6387 7.62327 14.4138 7.40516 14.3512 7.28802C14.26 7.11733 14.203 6.94633 14.1054 6.78373C13.8893 6.42471 13.5993 6.26025 13.2088 6.18326C12.7206 6.08707 12.3704 6.12993 11.966 6.40075C11.6618 6.60453 11.3451 6.98451 10.9735 7.02456C10.3864 7.08786 7.82984 7.51173 7.70875 7.5883C8.02409 7.56496 11.8791 7.63956 12.3158 7.74706C12.8293 7.87344 12.8061 8.28725 12.4574 8.61275C11.361 9.63615 9.74581 10.2452 9.05725 11.6534C8.73517 12.3118 8.52858 12.7575 8.52775 13.5275C8.52744 13.8449 8.55224 14.496 8.94425 15.3045C8.92609 15.2925 8.32468 14.5832 8.30051 13.9832C6.8497 13.013 6.11185 11.5622 6.11185 9.67413C6.11185 6.68132 8.5155 4.25505 11.4805 4.25505C14.4455 4.25505 16.8491 6.68121 16.8491 9.67413C16.8493 11.6422 16.008 13.4627 14.2546 14.3144Z" fill="#B4282E"/>
<path fill-rule="evenodd" clip-rule="evenodd" d="M11.7129 15.9585L11.0125 17.883C10.6088 18.9921 8.89502 18.759 8.83473 18.759C8.69393 18.759 8.58622 18.7435 8.47852 18.6417L8.73502 18.3561C8.79613 18.4031 8.8918 18.4305 8.98954 18.4305C9.06944 18.4305 9.94997 18.6217 10.2125 17.883L10.9129 15.9585H11.7129ZM16.6588 18.3718L16.5406 18.6965H14.131L15.1275 15.9585H15.9361L15.0576 18.3718H16.6588ZM13.0665 15.9653L10.9316 18.7031H11.3462L11.8866 17.96H12.8536L12.6925 18.7031H13.5443L14.1985 15.9653H13.0665ZM12.168 17.5717L13.2694 16.2238L12.966 17.5717H12.168Z" fill="white"/>
</svg>
