<svg width="24" height="24" viewBox="0 0 24 24" fill="none" xmlns="http://www.w3.org/2000/svg">
<path d="M10.1848 20.5061H8.64535L11.7558 16.0801C11.7558 16.0801 12.2206 15.1635 11.613 14.1944L7.27771 7.72129C7.27771 7.72129 6.89768 7.12112 7.27771 6.54495L8.56063 4.81426L13.6487 12.3088C13.6487 12.3088 14.9607 13.878 13.5349 15.8226L10.1848 20.5061Z" fill="#FCB130"/>
<path d="M13.9029 19.1486L15.7934 16.5515C15.7934 16.5515 16.3453 15.4799 17.771 15.4799H19.7777L21.1768 17.4681C21.1768 17.4681 20.073 17.3655 19.5792 18.0748L17.5168 20.8793C17.5168 20.8793 16.8439 22.1909 15.0454 22.1909H5.32914L9.02538 17.0752C9.02538 17.0752 9.54823 16.4751 8.81721 15.4799L5.52763 10.7134C5.52763 10.7134 4.71915 10.0085 5.55667 8.80157L6.51765 7.48991L11.0877 14.1704C11.0877 14.1704 11.8962 15.087 11.0877 16.187L7.65533 21.0124H14.8929C14.8929 21.0124 15.7086 21.1477 16.4106 20.2049L18.2091 17.7103C18.2091 17.7103 18.6182 16.8701 19.5211 16.5275H18.0663C18.0663 16.5275 17.3062 16.5536 16.7277 17.3677L15.1301 19.596C15.1301 19.596 14.5492 20.5388 13.2663 20.5388H10.7367L13.7891 16.2677C13.7891 16.2677 15.4521 14.297 14.2829 12.4877L9.22387 4.94299C9.22387 4.94299 8.84384 4.29044 9.28197 3.68372L10.3858 2.19092L16.1468 10.5563C16.1468 10.5563 16.9916 11.809 16.9916 12.778C16.9916 13.747 16.3186 14.8448 15.9459 15.4013L13.4091 18.9674C13.4091 18.9674 13.1234 19.3101 13.3244 19.4388C13.5301 19.5676 13.731 19.3363 13.9029 19.1486Z" fill="#FCB130"/>
</svg>
