<svg width="35" height="46" viewBox="0 0 35 46" fill="none" xmlns="http://www.w3.org/2000/svg">
<path fill-rule="evenodd" clip-rule="evenodd" d="M34.5003 25.9754C34.6779 24.9919 34.7671 23.9952 34.7668 22.9966C34.7668 22.3817 34.7328 21.8029 34.6673 21.2506C34.6533 21.1309 32.6708 25.1056 29.499 27.6233C31.7055 25.69 34.5837 20.6459 34.5431 20.4272C34.5082 20.2374 34.4688 20.0484 34.4249 19.8604C34.0457 18.2335 33.3618 16.7872 32.4298 15.215C32.141 18.5516 31.1317 22.1061 28.4836 25.1797C31.2319 21.9544 32.1881 14.6082 31.5332 13.5965C28.8972 9.55458 23.3466 6.01691 17.4042 6.01691L17.3624 6.12357V6.02438C11.4198 6.02438 5.86962 9.56184 3.23362 13.6036C2.57854 14.6153 3.53474 21.9614 6.283 25.1868C3.63511 22.1131 2.62565 18.5586 2.33706 15.2221C1.40442 16.7945 0.720906 18.2403 0.341696 19.8675C0.29781 20.0555 0.2584 20.2445 0.223498 20.4342C0.182967 20.653 3.06131 25.6971 5.26781 27.6304C2.09578 25.1125 0.113364 21.1378 0.0991467 21.2577C0.0316613 21.8373 -0.00142737 22.4203 4.71829e-05 23.0036C4.71829e-05 24.0199 0.091295 25.0151 0.266364 25.9824C0.428276 26.8771 4.11491 29.3402 4.2104 29.4176C1.53259 28.3945 0.427003 26.7853 0.527588 27.174C2.42852 34.5351 9.24474 39.983 17.3624 39.983V39.9754L17.4042 39.9758C25.5219 39.9758 32.3381 34.5283 34.2388 27.1668C34.3396 26.7781 33.2342 28.3872 30.5562 29.4103C30.6515 29.3331 34.3381 26.8702 34.5003 25.9754ZM23.0168 26.6291C22.8415 26.7036 22.6641 26.7677 22.4825 26.8158C20.8179 27.2593 18.5036 27.0964 17.4216 25.7141C16.3271 24.3158 16.6301 22.0475 17.481 20.6158C18.3402 19.1704 19.63 18.0963 20.7761 16.8798C21.3252 16.2994 21.8847 15.7285 22.4543 15.1673C22.8239 14.8014 23.8327 14.0174 23.8119 13.4944C23.8024 13.2468 23.3423 12.8106 23.2144 12.5763C23.0278 12.235 22.9113 11.893 22.7117 11.5678C22.2699 10.8497 21.6767 10.5208 20.878 10.3668C19.8796 10.1745 19.1634 10.2602 18.3364 10.8018C17.7142 11.2094 17.0666 11.9693 16.3067 12.0494C15.106 12.176 9.87753 13.0238 9.62989 13.1769C10.2748 13.1302 18.1586 13.2794 19.0518 13.4944C20.102 13.7472 20.0544 14.5748 19.3414 15.2258C17.0991 17.2726 13.7959 18.4908 12.3877 21.3071C11.729 22.6238 11.3065 23.5154 11.3048 25.0554C11.3042 25.69 11.3549 26.9922 12.1566 28.6093C12.1195 28.5854 10.8895 27.1668 10.8401 25.9666C7.87305 24.0263 6.36406 21.1247 6.36406 17.3486C6.36406 11.3629 11.2798 6.5104 17.3435 6.5104C23.4073 6.5104 28.3228 11.3627 28.3228 17.3486C28.3232 21.2847 26.6026 24.9257 23.0168 26.6291Z" fill="#B4282E"/>
<path fill-rule="evenodd" clip-rule="evenodd" d="M17.8187 29.917L16.3863 33.7659C15.5607 35.9842 12.0559 35.5181 11.9326 35.5181C11.6446 35.5181 11.4244 35.4869 11.2041 35.2834L11.7287 34.7123C11.8537 34.8063 12.0493 34.8611 12.2492 34.8611C12.4126 34.8611 14.2134 35.2433 14.7503 33.7659L16.1826 29.917H17.8187ZM27.9337 34.7436L27.692 35.3929H22.7639L24.802 29.917H26.4557L24.6589 34.7436H27.9337ZM20.5869 29.9307L16.2208 35.4062H17.0688L18.174 33.9199H20.1517L19.8222 35.4062H21.5641L22.9021 29.9307H20.5869ZM18.7495 33.1434L21.002 30.4476L20.3815 33.1434H18.7495Z" fill="white"/>
</svg>
