<svg width="174" height="34" viewBox="0 0 174 34" fill="none" xmlns="http://www.w3.org/2000/svg">
<g clip-path="url(#clip0_1003_25300)">
<path d="M129.851 8.36225C131.214 8.36225 132.452 8.53564 133.564 8.88243C134.676 9.22921 135.615 9.67764 136.38 10.2277C136.858 10.5625 137.235 10.9332 137.51 11.3398C137.785 11.7464 137.923 12.2726 137.923 12.9183V25.4744L137.917 25.8158C137.877 26.9394 137.64 27.9198 137.205 28.7569C136.727 29.6776 136.075 30.443 135.25 31.0528C134.425 31.6627 133.456 32.1111 132.344 32.3981C131.232 32.6851 130.042 32.8286 128.775 32.8286C126.598 32.8286 124.888 32.5356 123.645 31.9497C122.401 31.3637 121.779 30.4131 121.779 29.0977C121.779 28.5476 121.893 28.0633 122.12 27.6448C122.347 27.2262 122.604 26.9093 122.891 26.6941C123.585 27.0767 124.368 27.3996 125.241 27.6627C126.114 27.9258 127.017 28.0573 127.95 28.0573C129.241 28.0573 130.269 27.8421 131.035 27.4116C131.8 26.9811 132.183 26.2875 132.183 25.3309V24.7569L131.91 24.8689C130.983 25.2247 129.878 25.4026 128.595 25.4026C127.519 25.4026 126.497 25.2412 125.528 24.9183C124.559 24.5954 123.71 24.0932 122.981 23.4116C122.251 22.73 121.665 21.851 121.223 20.7748C120.781 19.6986 120.559 18.419 120.559 16.9362C120.559 15.4773 120.793 14.2098 121.259 13.1335C121.725 12.0573 122.371 11.1664 123.196 10.4609C124.021 9.75537 125.002 9.22921 126.138 8.88243C127.274 8.53564 128.512 8.36225 129.851 8.36225ZM33.2869 8.91917C35.4197 8.91917 37.165 9.39775 38.5227 10.3549C39.8804 11.3121 40.6841 13.0027 40.9338 15.4268H36.3769L36.3333 15.1587C36.2301 14.63 36.0313 14.1471 35.737 13.7102C35.2377 13.0235 34.4626 12.6802 33.4118 12.6802C31.9136 12.6802 30.8888 13.4241 30.3374 14.9118C30.0461 15.7025 29.9004 16.7533 29.9004 18.0642C29.9004 19.3127 30.0461 20.3167 30.3374 21.0762C30.868 22.4911 31.8668 23.1986 33.3337 23.1986C34.3741 23.1986 35.1128 22.9176 35.5498 22.3558C35.9867 21.794 36.252 21.0658 36.3457 20.171H40.887L40.8561 20.4818C40.7054 21.72 40.2267 22.896 39.42 24.0101C38.0259 25.9556 35.9607 26.9284 33.2245 26.9284C30.4883 26.9284 28.4751 26.1169 27.185 24.4938C25.8949 22.8708 25.2499 20.764 25.2499 18.1735C25.2499 15.25 25.9626 12.9767 27.3879 11.3537C28.8132 9.73067 30.7796 8.91917 33.2869 8.91917ZM74.6185 8.87235C76.0334 8.87235 77.3079 9.13765 78.4419 9.66825C79.5759 10.1988 80.5123 11.0364 81.251 12.1808C81.9168 13.19 82.3486 14.3604 82.5462 15.6921C82.6607 16.4724 82.7075 17.596 82.6867 19.063H71.0447L71.0606 19.3588C71.1718 20.9082 71.7023 22.0061 72.6521 22.6523C73.2659 23.0789 74.0046 23.2922 74.8681 23.2922C75.7837 23.2922 76.5276 23.0321 77.0998 22.5119C77.4119 22.231 77.6876 21.8408 77.9269 21.3415H82.4682L82.4345 21.5746C82.2705 22.5084 81.7563 23.4555 80.892 24.4158C79.4355 26.07 77.3963 26.8972 74.7745 26.8972C72.6105 26.8972 70.7014 26.2001 69.0471 24.806C67.3929 23.4118 66.5658 21.1438 66.5658 18.0018C66.5658 15.0575 67.3123 12.7998 68.8053 11.2288C70.2982 9.65784 72.236 8.87235 74.6185 8.87235ZM105.848 2.62234C106.374 2.62234 106.846 2.65821 107.265 2.72996C107.683 2.80171 108.036 2.94521 108.323 3.16045C108.61 3.3757 108.831 3.66867 108.987 4.03938C109.142 4.41008 109.22 4.89438 109.22 5.49229V26.2995L109.099 26.3211C108.843 26.3665 108.495 26.425 108.054 26.4968C107.54 26.5805 107.019 26.6223 106.493 26.6223C105.967 26.6223 105.495 26.5865 105.076 26.5147C104.658 26.443 104.305 26.2995 104.018 26.0842C103.731 25.869 103.51 25.576 103.354 25.2053C103.199 24.8346 103.121 24.3503 103.121 23.7524V2.94521L103.242 2.92361C103.498 2.87822 103.846 2.81964 104.287 2.7479C104.801 2.66419 105.321 2.62234 105.848 2.62234ZM115.015 8.82861C115.541 8.82861 116.014 8.86449 116.432 8.93624C116.851 9.00799 117.203 9.15148 117.49 9.36673C117.777 9.58198 117.999 9.87495 118.154 10.2457C118.31 10.6164 118.387 11.1007 118.387 11.6986V26.2995L118.267 26.3211C118.011 26.3665 117.662 26.425 117.221 26.4968C116.707 26.5805 116.187 26.6223 115.661 26.6223C115.135 26.6223 114.662 26.5865 114.244 26.5147C113.825 26.443 113.473 26.2995 113.186 26.0842C112.899 25.869 112.677 25.576 112.522 25.2053C112.366 24.8346 112.289 24.3503 112.289 23.7524V9.15148L112.409 9.12989C112.665 9.08449 113.014 9.02592 113.455 8.95417C113.969 8.87047 114.489 8.82861 115.015 8.82861ZM143.574 2.62234C144.101 2.62234 144.573 2.65821 144.991 2.72996C145.41 2.80171 145.763 2.94521 146.05 3.16045C146.337 3.3757 146.558 3.66867 146.713 4.03938C146.869 4.41008 146.947 4.89438 146.947 5.49229V9.00799L147.071 8.9623C147.378 8.85374 147.809 8.73145 148.364 8.59543C148.997 8.43997 149.697 8.36225 150.462 8.36225C152.83 8.36225 154.678 8.95417 156.005 10.138C157.332 11.3219 157.996 13.0857 157.996 15.4295V26.2995L157.885 26.3302C157.646 26.3917 157.307 26.4532 156.866 26.5147C156.352 26.5865 155.82 26.6223 155.27 26.6223C154.743 26.6223 154.271 26.5865 153.852 26.5147C153.434 26.443 153.081 26.2995 152.794 26.0842C152.507 25.869 152.286 25.576 152.131 25.2053C151.975 24.8346 151.897 24.3503 151.897 23.7524V15.7883L151.893 15.5672C151.858 14.7036 151.614 14.0897 151.162 13.7255C150.672 13.3309 150.068 13.1335 149.35 13.1335C148.872 13.1335 148.417 13.1933 147.987 13.3129C147.557 13.4325 147.21 13.576 146.947 13.7434V26.2995L146.836 26.3302C146.597 26.3917 146.257 26.4532 145.817 26.5147C145.302 26.5865 144.77 26.6223 144.22 26.6223C143.694 26.6223 143.222 26.5865 142.803 26.5147C142.385 26.443 142.032 26.2995 141.745 26.0842C141.458 25.869 141.237 25.576 141.081 25.2053C140.926 24.8346 140.848 24.3503 140.848 23.7524V2.94521L140.968 2.92361C141.225 2.87822 141.573 2.81964 142.014 2.7479C142.528 2.66419 143.048 2.62234 143.574 2.62234ZM100.626 4.59543L100.708 4.73444C100.843 4.97859 100.965 5.28502 101.075 5.65373C101.206 6.09618 101.272 6.55657 101.272 7.03489C101.272 7.96763 101.075 8.6313 100.68 9.02592C100.285 9.42054 99.7533 9.61785 99.0836 9.61785H91.55V13.6717H99.4065L99.4997 13.8102C99.6508 14.0527 99.7812 14.3533 99.8908 14.712C100.022 15.1425 100.088 15.5969 100.088 16.0752C100.088 16.9841 99.8908 17.6358 99.4962 18.0304C99.1016 18.425 98.5694 18.6223 97.8998 18.6223H91.6217V26.1918L91.4998 26.2226C91.2377 26.2841 90.8658 26.3456 90.3841 26.4071C89.822 26.4788 89.266 26.5147 88.7159 26.5147C88.1658 26.5147 87.6815 26.4729 87.263 26.3892C86.8445 26.3054 86.4917 26.156 86.2047 25.9407C85.9177 25.7255 85.7025 25.4265 85.559 25.0439C85.4155 24.6612 85.3437 24.159 85.3437 23.5371V7.93175L85.3499 7.67914C85.3956 6.76932 85.6925 6.04037 86.2406 5.49229C86.8385 4.89438 87.6516 4.59543 88.68 4.59543H100.626ZM16.3082 3.36347V7.40539H4.7754V12.6958H14.8724V16.6909H4.7754V26.3353H0V3.36347H16.3082ZM22.8234 9.32492V26.3353H18.3133V9.32492H22.8234ZM47.4022 3.41029V15.8014L52.9423 9.40295H58.4512L52.5054 15.9106L58.6853 26.3353H53.3169L49.2437 19.063L47.4022 20.9825V26.3353H43.0326V3.41029H47.4022ZM64.4827 3.33226V26.3353H60.035V3.33226H64.4827ZM158.328 4.4479C159.074 4.22371 160.346 4.17384 161.836 4.83255C163.339 5.49753 164.277 6.63812 164.649 8.25433L172.721 8.94035C172.821 8.94615 172.92 8.9664 173.019 9.00111C173.167 9.05316 173.247 9.1264 173.314 9.18373C173.478 9.3243 173.531 9.43269 173.609 9.62678C173.748 9.97191 173.706 10.3781 173.525 10.6566C173.233 11.1057 172.777 11.3962 172.156 11.5283L165.639 12.9133L166.79 18.3249C166.922 18.9461 167.213 19.3463 167.663 19.5253C168.113 19.7043 168.696 19.7176 169.413 19.5653C169.772 19.4891 170.136 19.3805 170.505 19.2395C170.875 19.0985 171.193 18.9498 171.459 18.7933C171.73 19.0104 171.977 19.2637 172.201 19.5533C172.425 19.8428 172.585 20.2145 172.682 20.6685C173.038 22.3466 170.397 23.932 168.666 24.2432C167.062 24.5313 164.602 24.7707 163.195 21.086C161.789 17.4013 159.58 11.2248 157.894 6.07762C157.748 5.63343 157.658 5.19715 157.814 4.83715C157.899 4.64256 157.96 4.55857 158.328 4.4479ZM130.138 13.1335C128.966 13.1335 128.087 13.4624 127.501 14.1201C126.915 14.7778 126.622 15.7165 126.622 16.9362C126.622 18.3234 126.915 19.3219 127.501 19.9318C128.087 20.5416 128.834 20.8465 129.743 20.8465C130.724 20.8465 131.501 20.6193 132.075 20.1649V13.564L131.965 13.5066C131.806 13.4301 131.598 13.3536 131.34 13.277C131.017 13.1814 130.616 13.1335 130.138 13.1335ZM74.6185 12.5397C73.5885 12.5397 72.79 12.8623 72.2229 13.5073C71.6559 14.1523 71.2996 15.0263 71.1539 16.1291H78.0674C77.9945 14.9534 77.6382 14.0613 76.9984 13.4527C76.3585 12.844 75.5652 12.5397 74.6185 12.5397ZM22.8234 3.1918V7.29615H18.3133V3.1918H22.8234ZM115.338 0.828613C116.342 0.828613 117.15 1.13953 117.76 1.76135C118.369 2.38317 118.674 3.14849 118.674 4.05731C118.674 4.96613 118.369 5.73145 117.76 6.35328C117.15 6.9751 116.342 7.28601 115.338 7.28601C114.334 7.28601 113.526 6.9751 112.916 6.35328C112.307 5.73145 112.002 4.96613 112.002 4.05731C112.002 3.14849 112.307 2.38317 112.916 1.76135C113.526 1.13953 114.334 0.828613 115.338 0.828613Z" fill="white"/>
</g>
<defs>
<clipPath id="clip0_1003_25300">
<rect width="174" height="33" fill="white" transform="translate(0 0.303223)"/>
</clipPath>
</defs>
</svg>
