<svg width="130" height="31" viewBox="0 0 130 31" fill="none" xmlns="http://www.w3.org/2000/svg">
<g clip-path="url(#clip0_1003_4180)">
<path d="M15.0001 0.987061C7.0471 0.987061 0.600098 7.43406 0.600098 15.3871C0.600098 23.3401 7.0471 29.7871 15.0001 29.7871C22.9531 29.7871 29.4001 23.3401 29.4001 15.3871C29.4001 7.43406 22.9531 0.987061 15.0001 0.987061ZM18.4111 10.9381H16.2466C15.9901 10.9381 15.7051 11.2756 15.7051 11.7241V13.2871H18.4126L18.0031 15.5161H15.7051V22.2076H13.1506V15.5161H10.8331V13.2871H13.1506V11.9761C13.1506 10.0951 14.4556 8.56656 16.2466 8.56656H18.4111V10.9381Z" fill="white"/>
</g>
<g clip-path="url(#clip1_1003_4180)">
<path d="M115 0.987061C107.047 0.987061 100.6 7.43406 100.6 15.3871C100.6 23.3401 107.047 29.7871 115 29.7871C122.953 29.7871 129.4 23.3401 129.4 15.3871C129.4 7.43406 122.953 0.987061 115 0.987061ZM120.858 12.7831C120.864 12.9061 120.865 13.0291 120.865 13.1491C120.865 16.8991 118.014 21.2206 112.797 21.2206C111.255 21.2231 109.746 20.7804 108.45 19.9456C108.67 19.9726 108.897 19.9831 109.126 19.9831C110.455 19.9831 111.678 19.5316 112.648 18.7696C112.057 18.7579 111.484 18.5621 111.009 18.2093C110.534 17.8566 110.181 17.3644 109.999 16.8016C110.424 16.8823 110.861 16.8654 111.279 16.7521C110.637 16.6223 110.059 16.2744 109.645 15.7676C109.23 15.2607 109.003 14.626 109.003 13.9711V13.9366C109.386 14.1481 109.824 14.2771 110.289 14.2921C109.687 13.8915 109.261 13.2761 109.098 12.5718C108.935 11.8675 109.047 11.1274 109.411 10.5031C110.124 11.3791 111.012 12.0957 112.019 12.6065C113.026 13.1174 114.129 13.4111 115.257 13.4686C115.113 12.86 115.175 12.2212 115.432 11.6513C115.689 11.0815 116.128 10.6125 116.679 10.3175C117.23 10.0224 117.863 9.91765 118.48 10.0196C119.097 10.1215 119.663 10.4243 120.09 10.8811C120.724 10.7555 121.333 10.5226 121.89 10.1926C121.678 10.8498 121.235 11.4078 120.643 11.7631C121.205 11.6953 121.754 11.5442 122.272 11.3146C121.892 11.8844 121.413 12.3817 120.858 12.7831Z" fill="white"/>
</g>
<g clip-path="url(#clip2_1003_4180)">
<path d="M69.5001 15.3871C69.5001 16.5805 69.026 17.7251 68.1821 18.569C67.3382 19.413 66.1936 19.8871 65.0001 19.8871C63.8066 19.8871 62.662 19.413 61.8181 18.569C60.9742 17.7251 60.5001 16.5805 60.5001 15.3871C60.5001 15.1306 60.5271 14.8801 60.5736 14.6371H59.0001V20.6326C59.0001 21.0496 59.3376 21.3871 59.7546 21.3871H70.2471C70.4469 21.3867 70.6385 21.307 70.7796 21.1655C70.9208 21.0241 71.0001 20.8324 71.0001 20.6326V14.6371H69.4266C69.4731 14.8801 69.5001 15.1306 69.5001 15.3871ZM65.0001 18.3871C65.3942 18.387 65.7844 18.3092 66.1484 18.1584C66.5124 18.0075 66.8432 17.7863 67.1217 17.5076C67.4003 17.2289 67.6213 16.8981 67.772 16.534C67.9227 16.1698 68.0002 15.7796 68.0001 15.3856C68 14.9915 67.9223 14.6013 67.7714 14.2373C67.6205 13.8733 67.3994 13.5425 67.1207 13.2639C66.842 12.9854 66.5111 12.7644 66.147 12.6137C65.7829 12.463 65.3927 12.3855 64.9986 12.3856C64.2028 12.3858 63.4396 12.7021 62.877 13.265C62.3144 13.8279 61.9984 14.5912 61.9986 15.3871C61.9988 16.1829 62.3151 16.9461 62.878 17.5087C63.4409 18.0713 64.2043 18.3873 65.0001 18.3871ZM68.6001 12.2371H70.3986C70.5181 12.2371 70.6327 12.1897 70.7173 12.1053C70.802 12.021 70.8497 11.9065 70.8501 11.7871V9.98856C70.8501 9.86882 70.8025 9.75397 70.7179 9.6693C70.6332 9.58463 70.5183 9.53706 70.3986 9.53706H68.6001C68.4804 9.53706 68.3655 9.58463 68.2808 9.6693C68.1962 9.75397 68.1486 9.86882 68.1486 9.98856V11.7871C68.1501 12.0346 68.3526 12.2371 68.6001 12.2371ZM65.0001 0.987061C61.181 0.987061 57.5183 2.5042 54.8178 5.20472C52.1172 7.90525 50.6001 11.5679 50.6001 15.3871C50.6001 19.2062 52.1172 22.8689 54.8178 25.5694C57.5183 28.2699 61.181 29.7871 65.0001 29.7871C66.8911 29.7871 68.7637 29.4146 70.5107 28.6909C72.2578 27.9673 73.8453 26.9066 75.1824 25.5694C76.5196 24.2322 77.5803 22.6448 78.304 20.8977C79.0276 19.1506 79.4001 17.2781 79.4001 15.3871C79.4001 13.496 79.0276 11.6235 78.304 9.87642C77.5803 8.12933 76.5196 6.54189 75.1824 5.20472C73.8453 3.86756 72.2578 2.80686 70.5107 2.0832C68.7637 1.35953 66.8911 0.987061 65.0001 0.987061ZM72.5001 21.2206C72.5001 22.1371 71.7501 22.8871 70.8336 22.8871H59.1666C58.2501 22.8871 57.5001 22.1371 57.5001 21.2206V9.55356C57.5001 8.63706 58.2501 7.88706 59.1666 7.88706H70.8336C71.7501 7.88706 72.5001 8.63706 72.5001 9.55356V21.2206Z" fill="white"/>
</g>
<defs>
<clipPath id="clip0_1003_4180">
<rect width="30" height="30" fill="white" transform="translate(0 0.386963)"/>
</clipPath>
<clipPath id="clip1_1003_4180">
<rect width="30" height="30" fill="white" transform="translate(100 0.386963)"/>
</clipPath>
<clipPath id="clip2_1003_4180">
<rect width="30" height="30" fill="white" transform="translate(50 0.386963)"/>
</clipPath>
</defs>
</svg>
