<svg width="130" height="31" viewBox="0 0 130 31" fill="none" xmlns="http://www.w3.org/2000/svg">
<g clip-path="url(#clip0_1003_25306)">
<path d="M15.0001 0.90332C7.0471 0.90332 0.600098 7.35032 0.600098 15.3033C0.600098 23.2563 7.0471 29.7033 15.0001 29.7033C22.9531 29.7033 29.4001 23.2563 29.4001 15.3033C29.4001 7.35032 22.9531 0.90332 15.0001 0.90332ZM18.4111 10.8543H16.2466C15.9901 10.8543 15.7051 11.1918 15.7051 11.6403V13.2033H18.4126L18.0031 15.4323H15.7051V22.1238H13.1506V15.4323H10.8331V13.2033H13.1506V11.8923C13.1506 10.0113 14.4556 8.48282 16.2466 8.48282H18.4111V10.8543V10.8543Z" fill="white"/>
</g>
<g clip-path="url(#clip1_1003_25306)">
<path d="M115 0.90332C107.047 0.90332 100.6 7.35032 100.6 15.3033C100.6 23.2563 107.047 29.7033 115 29.7033C122.953 29.7033 129.4 23.2563 129.4 15.3033C129.4 7.35032 122.953 0.90332 115 0.90332ZM120.858 12.6993C120.864 12.8223 120.865 12.9453 120.865 13.0653C120.865 16.8153 118.014 21.1368 112.797 21.1368C111.255 21.1394 109.746 20.6966 108.45 19.8618C108.67 19.8888 108.897 19.8993 109.126 19.8993C110.455 19.8993 111.678 19.4478 112.648 18.6858C112.057 18.6742 111.484 18.4784 111.009 18.1256C110.534 17.7728 110.181 17.2807 109.999 16.7178C110.424 16.7986 110.861 16.7817 111.279 16.6683C110.637 16.5385 110.059 16.1907 109.645 15.6838C109.23 15.1769 109.003 14.5422 109.003 13.8873V13.8528C109.386 14.0643 109.824 14.1933 110.289 14.2083C109.687 13.8077 109.261 13.1923 109.098 12.488C108.935 11.7837 109.047 11.0437 109.411 10.4193C110.124 11.2953 111.012 12.0119 112.019 12.5228C113.026 13.0336 114.129 13.3273 115.257 13.3848C115.113 12.7763 115.175 12.1374 115.432 11.5676C115.689 10.9977 116.128 10.5288 116.679 10.2337C117.23 9.93863 117.863 9.8339 118.48 9.93583C119.097 10.0378 119.663 10.3406 120.09 10.7973C120.724 10.6717 121.333 10.4389 121.89 10.1088C121.678 10.766 121.235 11.3241 120.643 11.6793C121.205 11.6116 121.754 11.4604 122.272 11.2308C121.892 11.8007 121.413 12.298 120.858 12.6993V12.6993Z" fill="white"/>
</g>
<g clip-path="url(#clip2_1003_25306)">
<path d="M69.5001 15.3033C69.5001 16.4968 69.026 17.6414 68.1821 18.4853C67.3382 19.3292 66.1936 19.8033 65.0001 19.8033C63.8066 19.8033 62.662 19.3292 61.8181 18.4853C60.9742 17.6414 60.5001 16.4968 60.5001 15.3033C60.5001 15.0468 60.5271 14.7963 60.5736 14.5533H59.0001V20.5488C59.0001 20.9658 59.3376 21.3033 59.7546 21.3033H70.2471C70.4469 21.3029 70.6385 21.2233 70.7796 21.0818C70.9208 20.9404 71.0001 20.7487 71.0001 20.5488V14.5533H69.4266C69.4731 14.7963 69.5001 15.0468 69.5001 15.3033V15.3033ZM65.0001 18.3033C65.3942 18.3032 65.7844 18.2255 66.1484 18.0746C66.5124 17.9237 66.8432 17.7026 67.1217 17.4239C67.4003 17.1452 67.6213 16.8143 67.772 16.4502C67.9227 16.0861 68.0002 15.6959 68.0001 15.3018C68 14.9078 67.9223 14.5176 67.7714 14.1535C67.6205 13.7895 67.3994 13.4588 67.1207 13.1802C66.842 12.9016 66.5111 12.6807 66.147 12.53C65.7829 12.3792 65.3927 12.3017 64.9986 12.3018C64.2028 12.302 63.4396 12.6184 62.877 13.1813C62.3144 13.7441 61.9984 14.5075 61.9986 15.3033C61.9988 16.0992 62.3151 16.8623 62.878 17.425C63.4409 17.9876 64.2043 18.3035 65.0001 18.3033V18.3033ZM68.6001 12.1533H70.3986C70.5181 12.1533 70.6327 12.106 70.7173 12.0216C70.802 11.9373 70.8497 11.8228 70.8501 11.7033V9.90482C70.8501 9.78507 70.8025 9.67023 70.7179 9.58556C70.6332 9.50089 70.5183 9.45332 70.3986 9.45332H68.6001C68.4804 9.45332 68.3655 9.50089 68.2808 9.58556C68.1962 9.67023 68.1486 9.78507 68.1486 9.90482V11.7033C68.1501 11.9508 68.3526 12.1533 68.6001 12.1533V12.1533ZM65.0001 0.90332C61.181 0.90332 57.5183 2.42046 54.8178 5.12098C52.1172 7.82151 50.6001 11.4842 50.6001 15.3033C50.6001 19.1224 52.1172 22.7851 54.8178 25.4857C57.5183 28.1862 61.181 29.7033 65.0001 29.7033C66.8911 29.7033 68.7637 29.3309 70.5107 28.6072C72.2578 27.8835 73.8453 26.8228 75.1824 25.4857C76.5196 24.1485 77.5803 22.5611 78.304 20.814C79.0276 19.0669 79.4001 17.1944 79.4001 15.3033C79.4001 13.4123 79.0276 11.5398 78.304 9.79268C77.5803 8.04559 76.5196 6.45815 75.1824 5.12098C73.8453 3.78382 72.2578 2.72312 70.5107 1.99946C68.7637 1.27579 66.8911 0.90332 65.0001 0.90332V0.90332ZM72.5001 21.1368C72.5001 22.0533 71.7501 22.8033 70.8336 22.8033H59.1666C58.2501 22.8033 57.5001 22.0533 57.5001 21.1368V9.46982C57.5001 8.55332 58.2501 7.80332 59.1666 7.80332H70.8336C71.7501 7.80332 72.5001 8.55332 72.5001 9.46982V21.1368V21.1368Z" fill="white"/>
</g>
<defs>
<clipPath id="clip0_1003_25306">
<rect width="30" height="30" fill="white" transform="translate(0 0.303223)"/>
</clipPath>
<clipPath id="clip1_1003_25306">
<rect width="30" height="30" fill="white" transform="translate(100 0.303223)"/>
</clipPath>
<clipPath id="clip2_1003_25306">
<rect width="30" height="30" fill="white" transform="translate(50 0.303223)"/>
</clipPath>
</defs>
</svg>
