<svg width="32" height="32" viewBox="0 0 32 32" fill="none" xmlns="http://www.w3.org/2000/svg">
<path d="M21.7607 1.0427C21.1018 0.390368 20.2084 0.0239258 19.2769 0.0239258C18.3454 0.0239258 17.452 0.390368 16.7931 1.0427L1.36558 16.3277C1.0393 16.651 0.780477 17.0347 0.603895 17.457C0.427312 17.8794 0.336426 18.332 0.336426 18.7891C0.336426 19.2462 0.427312 19.6989 0.603895 20.1212C0.780477 20.5435 1.0393 20.9273 1.36558 21.2505L3.19583 23.0621C3.99227 23.8527 5.11197 23.7119 5.78816 23.3128C6.16116 23.0933 6.59732 23.0033 7.02775 23.0568C7.45818 23.1102 7.85836 23.3042 8.1651 23.6081C8.47185 23.912 8.66768 24.3085 8.72167 24.7349C8.77566 25.1613 8.68474 25.5934 8.46326 25.9629C8.06191 26.6328 7.91824 27.742 8.71624 28.531L10.5481 30.3442C10.8743 30.6674 11.2617 30.9238 11.688 31.0988C12.1143 31.2737 12.5712 31.3637 13.0326 31.3637C13.4941 31.3637 13.951 31.2737 14.3773 31.0988C14.8036 30.9238 15.1909 30.6674 15.5172 30.3442L30.9431 15.0622C31.2694 14.739 31.5282 14.3553 31.7048 13.9329C31.8814 13.5106 31.9723 13.058 31.9723 12.6009C31.9723 12.1437 31.8814 11.6911 31.7048 11.2688C31.5282 10.8464 31.2694 10.4627 30.9431 10.1395L29.1144 8.3263C28.318 7.53729 27.1968 7.67653 26.5206 8.07567C26.1476 8.29509 25.7114 8.38516 25.281 8.33167C24.8505 8.27819 24.4504 8.08418 24.1436 7.7803C23.8369 7.47642 23.641 7.07997 23.587 6.65356C23.5331 6.22715 23.624 5.79507 23.8455 5.42555C24.2484 4.75566 24.3905 3.64642 23.5925 2.85741L21.7622 1.0427H21.7607Z" fill="white"/>
</svg>
