<svg width="24" height="24" viewBox="0 0 24 24" fill="none" xmlns="http://www.w3.org/2000/svg">
<path d="M11.8732 21.6186C9.24985 21.6186 6.73396 20.5765 4.87899 18.7215C3.02401 16.8665 1.98189 14.3507 1.98189 11.7273C1.98189 9.10398 3.02401 6.58809 4.87899 4.73311C6.73396 2.87813 9.24985 1.83602 11.8732 1.83602C14.4965 1.83602 17.0124 2.87813 18.8674 4.73311C20.7224 6.58809 21.7645 9.10398 21.7645 11.7273C21.7645 14.3507 20.7224 16.8665 18.8674 18.7215C17.0124 20.5765 14.4965 21.6186 11.8732 21.6186ZM11.8732 23.0317C14.8713 23.0317 17.7466 21.8407 19.8666 19.7207C21.9865 17.6007 23.1775 14.7254 23.1775 11.7273C23.1775 8.72922 21.9865 5.85391 19.8666 3.73394C17.7466 1.61396 14.8713 0.422974 11.8732 0.422974C8.87509 0.422974 5.99979 1.61396 3.87981 3.73394C1.75984 5.85391 0.568848 8.72922 0.568848 11.7273C0.568848 14.7254 1.75984 17.6007 3.87981 19.7207C5.99979 21.8407 8.87509 23.0317 11.8732 23.0317V23.0317Z" fill="#1262AF"/>
</svg>
