<svg width="24" height="24" viewBox="0 0 24 24" fill="none" xmlns="http://www.w3.org/2000/svg">
<path d="M11.8732 21.8913C9.24985 21.8913 6.73396 20.8492 4.87899 18.9942C3.02401 17.1392 1.98189 14.6234 1.98189 12C1.98189 9.37669 3.02401 6.86079 4.87899 5.00582C6.73396 3.15084 9.24985 2.10872 11.8732 2.10872C14.4965 2.10872 17.0124 3.15084 18.8674 5.00582C20.7224 6.86079 21.7645 9.37669 21.7645 12C21.7645 14.6234 20.7224 17.1392 18.8674 18.9942C17.0124 20.8492 14.4965 21.8913 11.8732 21.8913ZM11.8732 23.3044C14.8713 23.3044 17.7466 22.1134 19.8666 19.9934C21.9865 17.8734 23.1775 14.9981 23.1775 12C23.1775 9.00192 21.9865 6.12662 19.8666 4.00664C17.7466 1.88667 14.8713 0.695679 11.8732 0.695679C8.87509 0.695679 5.99979 1.88667 3.87981 4.00664C1.75984 6.12662 0.568848 9.00192 0.568848 12C0.568848 14.9981 1.75984 17.8734 3.87981 19.9934C5.99979 22.1134 8.87509 23.3044 11.8732 23.3044V23.3044Z" fill="#1262AF"/>
</svg>
