<svg width="9" height="11" viewBox="0 0 9 11" fill="none" xmlns="http://www.w3.org/2000/svg">
<path d="M1.34991 0.92721C1.48321 0.858569 1.63286 0.828032 1.7824 0.83896C1.93193 0.849887 2.07556 0.901856 2.19746 0.989147L7.90214 5.06392C8.00778 5.1393 8.09389 5.23883 8.1533 5.35421C8.21272 5.4696 8.24371 5.59751 8.24371 5.72729C8.24371 5.85707 8.21272 5.98498 8.1533 6.10036C8.09389 6.21575 8.00778 6.31527 7.90214 6.39066L2.19746 10.4654C2.0756 10.5526 1.93205 10.6046 1.78259 10.6155C1.63313 10.6264 1.48355 10.5959 1.35029 10.5274C1.21704 10.4588 1.10527 10.3548 1.02728 10.2269C0.949284 10.0989 0.908082 9.95192 0.908204 9.80206V1.65252C0.908047 1.5027 0.949191 1.35574 1.02712 1.22778C1.10504 1.09983 1.21673 0.995826 1.34991 0.92721V0.92721Z" fill="#1262AF"/>
</svg>
