<svg width="17" height="18" viewBox="0 0 17 18" fill="none" xmlns="http://www.w3.org/2000/svg">
<path d="M16.1363 6.43948L11.1372 5.65526L8.90251 0.765024C8.84148 0.631132 8.74106 0.522744 8.61702 0.45686C8.30593 0.29109 7.9279 0.429232 7.77236 0.765024L5.53764 5.65526L0.53857 6.43948C0.400746 6.46074 0.274735 6.53087 0.178258 6.63713C0.0616232 6.76653 -0.002648 6.94062 -0.000432864 7.12115C0.00178227 7.30167 0.0703025 7.47386 0.190072 7.59988L3.80697 11.4062L2.95246 16.781C2.93242 16.9061 2.94524 17.0346 2.98946 17.1522C3.03368 17.2698 3.10753 17.3716 3.20264 17.4462C3.29776 17.5208 3.41032 17.5651 3.52758 17.5741C3.64483 17.5831 3.76208 17.5565 3.86603 17.4972L8.33744 14.9597L12.8088 17.4972C12.9309 17.5674 13.0727 17.5908 13.2085 17.5653C13.5511 17.5015 13.7815 17.1508 13.7224 16.781L12.8679 11.4062L16.4848 7.59988C16.5832 7.49574 16.6482 7.35972 16.6679 7.21096C16.7211 6.83903 16.4809 6.49474 16.1363 6.43948Z" fill="#FDBF00"/>
</svg>
