<svg width="28" height="32" viewBox="0 0 28 32" fill="none" xmlns="http://www.w3.org/2000/svg">
<path d="M0.618164 23.6668C0.618164 25.1335 1.27429 26.4502 2.30053 27.3668V29.5002C2.30053 30.8835 3.42771 32.0002 4.82408 32.0002C6.22044 32.0002 7.34763 30.8835 7.34763 29.5002V28.6668H20.8065V29.5002C20.8065 30.8668 21.9337 32.0002 23.3301 32.0002C24.7096 32.0002 25.8536 30.8835 25.8536 29.5002V27.3668C26.8799 26.4502 27.536 25.1335 27.536 23.6668V7.00016C27.536 1.16683 21.5131 0.333496 14.0771 0.333496C6.64103 0.333496 0.618164 1.16683 0.618164 7.00016V23.6668ZM6.50644 25.3335C5.11008 25.3335 3.98289 24.2168 3.98289 22.8335C3.98289 21.4502 5.11008 20.3335 6.50644 20.3335C7.90281 20.3335 9.02999 21.4502 9.02999 22.8335C9.02999 24.2168 7.90281 25.3335 6.50644 25.3335ZM21.6477 25.3335C20.2514 25.3335 19.1242 24.2168 19.1242 22.8335C19.1242 21.4502 20.2514 20.3335 21.6477 20.3335C23.0441 20.3335 24.1713 21.4502 24.1713 22.8335C24.1713 24.2168 23.0441 25.3335 21.6477 25.3335ZM24.1713 15.3335H3.98289V7.00016H24.1713V15.3335Z" fill="white"/>
</svg>
