<svg width="9" height="10" viewBox="0 0 9 10" fill="none" xmlns="http://www.w3.org/2000/svg">
<path d="M1.34991 0.199915C1.48321 0.131274 1.63286 0.100737 1.7824 0.111665C1.93193 0.122592 2.07556 0.174561 2.19746 0.261852L7.90214 4.33662C8.00778 4.41201 8.09389 4.51153 8.1533 4.62692C8.21272 4.7423 8.24371 4.87021 8.24371 4.99999C8.24371 5.12978 8.21272 5.25768 8.1533 5.37307C8.09389 5.48845 8.00778 5.58798 7.90214 5.66337L2.19746 9.73814C2.0756 9.82535 1.93205 9.87728 1.78259 9.88821C1.63313 9.89914 1.48355 9.86864 1.35029 9.80008C1.21704 9.73151 1.10527 9.62754 1.02728 9.49957C0.949284 9.37161 0.908082 9.22462 0.908204 9.07476V0.925224C0.908047 0.775407 0.949191 0.628446 1.02712 0.500489C1.10504 0.372532 1.21673 0.268531 1.34991 0.199915V0.199915Z" fill="#1262AF"/>
</svg>
