<svg width="19" height="17" viewBox="0 0 19 17" fill="none" xmlns="http://www.w3.org/2000/svg">
<path d="M18.1989 6.20986L12.561 5.47989L10.0407 0.927941C9.97186 0.803311 9.85862 0.702421 9.71873 0.641095C9.36788 0.486792 8.94154 0.615378 8.76612 0.927941L6.24584 5.47989L0.607943 6.20986C0.452507 6.22964 0.310394 6.29493 0.201588 6.39384C0.0700486 6.51429 -0.0024357 6.67633 6.24985e-05 6.84437C0.0025607 7.0124 0.079837 7.17268 0.214911 7.28998L4.294 10.833L3.3303 15.836C3.3077 15.9524 3.32215 16.0721 3.37203 16.1815C3.4219 16.291 3.50519 16.3857 3.61246 16.4552C3.71972 16.5246 3.84667 16.5658 3.97891 16.5742C4.11115 16.5826 4.24338 16.5578 4.36062 16.5027L9.40341 14.1407L14.4462 16.5027C14.5839 16.568 14.7438 16.5897 14.897 16.566C15.2833 16.5066 15.5431 16.1802 15.4765 15.836L14.5128 10.833L18.5919 7.28998C18.7029 7.19305 18.7762 7.06644 18.7984 6.92796C18.8584 6.58177 18.5875 6.2613 18.1989 6.20986V6.20986Z" fill="#FDBF00"/>
</svg>
