<svg width="17" height="18" viewBox="0 0 17 18" fill="none" xmlns="http://www.w3.org/2000/svg">
<path d="M16.1058 6.43948L11.1163 5.65526L8.88589 0.765024C8.82497 0.631132 8.72475 0.522744 8.60095 0.45686C8.29046 0.29109 7.91315 0.429232 7.75791 0.765024L5.52748 5.65526L0.538022 6.43948C0.400463 6.46074 0.274694 6.53087 0.178403 6.63713C0.0619921 6.76653 -0.00215557 6.94062 5.53104e-05 7.12115C0.00226619 7.30167 0.0706548 7.47386 0.190194 7.59988L3.80014 11.4062L2.94727 16.781C2.92727 16.9061 2.94006 17.0346 2.9842 17.1522C3.02833 17.2698 3.10205 17.3716 3.19698 17.4462C3.29191 17.5208 3.40426 17.5651 3.52128 17.5741C3.63831 17.5831 3.75534 17.5565 3.85909 17.4972L8.3219 14.9597L12.7847 17.4972C12.9065 17.5674 13.048 17.5908 13.1836 17.5653C13.5256 17.5015 13.7555 17.1508 13.6965 16.781L12.8437 11.4062L16.4536 7.59988C16.5519 7.49574 16.6167 7.35972 16.6364 7.21096C16.6894 6.83903 16.4497 6.49474 16.1058 6.43948Z" fill="#FDBF00"/>
</svg>
