<svg width="30" height="27" viewBox="0 0 30 27" fill="none" xmlns="http://www.w3.org/2000/svg">
<path d="M25.7504 4.76458C25.4352 3.90417 24.5527 3.29167 23.5125 3.29167H19.5727V1.83333C19.5727 1.03125 18.8636 0.375 17.9968 0.375H11.6931C10.8263 0.375 10.1172 1.03125 10.1172 1.83333V3.29167H6.17736C5.13725 3.29167 4.27049 3.90417 3.93955 4.76458L0.834973 13.0333C0.724658 13.3396 0.661621 13.6604 0.661621 13.9958V24.4375C0.661621 25.6479 1.71749 26.625 3.02551 26.625C4.33353 26.625 5.3894 25.6479 5.3894 24.4375V23.7083H24.3005V24.4375C24.3005 25.6333 25.3564 26.625 26.6644 26.625C27.9567 26.625 29.0283 25.6479 29.0283 24.4375V13.9958C29.0283 13.675 28.9652 13.3396 28.8549 13.0333L25.7504 4.76458ZM6.17736 19.3333C4.86934 19.3333 3.81347 18.3563 3.81347 17.1458C3.81347 15.9354 4.86934 14.9583 6.17736 14.9583C7.48538 14.9583 8.54125 15.9354 8.54125 17.1458C8.54125 18.3563 7.48538 19.3333 6.17736 19.3333ZM23.5125 19.3333C22.2045 19.3333 21.1487 18.3563 21.1487 17.1458C21.1487 15.9354 22.2045 14.9583 23.5125 14.9583C24.8206 14.9583 25.8764 15.9354 25.8764 17.1458C25.8764 18.3563 24.8206 19.3333 23.5125 19.3333ZM3.81347 12.0417L6.17736 5.47917H23.5125L25.8764 12.0417H3.81347Z" fill="white"/>
</svg>
