<svg width="16" height="16" viewBox="0 0 16 16" fill="none" xmlns="http://www.w3.org/2000/svg">
<path d="M15.4744 5.63406L10.6806 4.90408L8.53756 0.352135C8.47903 0.227506 8.38274 0.126615 8.26379 0.0652895C7.96547 -0.0890138 7.60295 0.0395723 7.4538 0.352135L5.31081 4.90408L0.516931 5.63406C0.384765 5.65384 0.263926 5.71912 0.17141 5.81803C0.059562 5.93848 -0.00207107 6.10053 5.31422e-05 6.26856C0.00217735 6.4366 0.0678851 6.59688 0.182738 6.71418L3.65117 10.2572L2.83174 15.2602C2.81252 15.3766 2.82481 15.4963 2.86722 15.6057C2.90962 15.7151 2.98045 15.8099 3.07165 15.8793C3.16286 15.9488 3.27081 15.99 3.38325 15.9984C3.49569 16.0068 3.60813 15.982 3.70781 15.9269L7.99568 13.5648L12.2835 15.9269C12.4006 15.9922 12.5366 16.0139 12.6668 15.9902C12.9954 15.9308 13.2163 15.6044 13.1596 15.2602L12.3402 10.2572L15.8086 6.71418C15.903 6.61724 15.9653 6.49064 15.9842 6.35216C16.0352 6.00597 15.8048 5.68549 15.4744 5.63406V5.63406Z" fill="#FDBF00"/>
</svg>
