<svg width="27" height="24" viewBox="0 0 27 24" fill="none" xmlns="http://www.w3.org/2000/svg">
<path d="M23.7497 0.0537109H2.86238C1.42246 0.0537109 0.251465 1.21378 0.251465 2.64027V20.7462C0.251465 22.1727 1.42246 23.3327 2.86238 23.3327H23.7497C25.1896 23.3327 26.3606 22.1727 26.3606 20.7462V2.64027C26.3606 1.21378 25.1896 0.0537109 23.7497 0.0537109ZM23.751 7.81339C23.7497 7.81339 23.7497 7.81339 23.751 7.81339H23.1439L19.6623 2.64027H23.7497L23.751 7.81339ZM17.8751 15.5731L10.6951 19.4529V11.6932L17.8751 15.5731ZM16.6167 7.81339L13.135 2.64027H16.524L20.0056 7.81339H16.6167ZM13.4784 7.81339H10.0894L6.60773 2.64027H9.9967L13.4784 7.81339ZM2.86238 2.64027H3.46942L6.95107 7.81339H2.86238V2.64027Z" fill="white"/>
</svg>
